<?xml version="1.0" encoding="UTF-8" standalone="no"?>
<!-- Created with Inkscape (http://www.inkscape.org/) -->

<svg
   xmlns:dc="http://purl.org/dc/elements/1.1/"
   xmlns:cc="http://creativecommons.org/ns#"
   xmlns:rdf="http://www.w3.org/1999/02/22-rdf-syntax-ns#"
   xmlns:svg="http://www.w3.org/2000/svg"
   xmlns="http://www.w3.org/2000/svg"
   xmlns:sodipodi="http://sodipodi.sourceforge.net/DTD/sodipodi-0.dtd"
   xmlns:inkscape="http://www.inkscape.org/namespaces/inkscape"
   width="800"
   height="600"
   id="svg2"
   version="1.1"
   inkscape:version="0.48.2 r9819"
   sodipodi:docname="sprites.svg">
  <defs
     id="defs4" />
  <sodipodi:namedview
     id="base"
     pagecolor="#ffffff"
     bordercolor="#666666"
     borderopacity="1.0"
     inkscape:pageopacity="0.0"
     inkscape:pageshadow="2"
     inkscape:zoom="0.45254834"
     inkscape:cx="310.82577"
     inkscape:cy="333.18711"
     inkscape:document-units="px"
     inkscape:current-layer="layer6"
     showgrid="false"
     inkscape:window-width="1202"
     inkscape:window-height="756"
     inkscape:window-x="0"
     inkscape:window-y="0"
     inkscape:window-maximized="1"
     showguides="true"
     inkscape:guide-bbox="true" />
  <metadata
     id="metadata7">
    <rdf:RDF>
      <cc:Work
         rdf:about="">
        <dc:format>image/svg+xml</dc:format>
        <dc:type
           rdf:resource="http://purl.org/dc/dcmitype/StillImage" />
        <dc:title></dc:title>
      </cc:Work>
    </rdf:RDF>
  </metadata>
  <g
     inkscape:label="User Interface"
     inkscape:groupmode="layer"
     id="layer1"
     transform="translate(0,-452.36218)"
     style="display:none">
    <g
       id="g3042"
       transform="translate(0,39.999997)">
      <rect
         y="552.36218"
         x="250"
         height="200"
         width="300"
         id="rect3012"
         style="fill:#afdde9;fill-opacity:1;stroke:none" />
      <rect
         y="782.36218"
         x="250"
         height="60"
         width="300"
         id="rect3014"
         style="fill:#afdde9;fill-opacity:1;stroke:none" />
    </g>
    <rect
       style="fill:#aaffcc;fill-opacity:1;stroke:none"
       id="rect3018"
       width="20"
       height="480"
       x="492.36218"
       y="-590"
       transform="matrix(0,1,-1,0,0,0)" />
    <rect
       y="-590"
       x="522.36218"
       height="480"
       width="20"
       id="rect3020"
       style="fill:#aaffcc;fill-opacity:1;stroke:none"
       transform="matrix(0,1,-1,0,0,0)" />
    <rect
       style="fill:#aaffcc;fill-opacity:1;stroke:none"
       id="rect3022"
       width="20"
       height="480"
       x="552.36218"
       y="-590"
       transform="matrix(0,1,-1,0,0,0)" />
    <rect
       style="fill:#aaffcc;fill-opacity:1;stroke:none"
       id="rect3026"
       width="20"
       height="20"
       x="492.36218"
       y="-100"
       transform="matrix(0,1,-1,0,0,0)" />
    <rect
       y="-100"
       x="522.36218"
       height="20"
       width="20"
       id="rect3028"
       style="fill:#aaffcc;fill-opacity:1;stroke:none"
       transform="matrix(0,1,-1,0,0,0)" />
    <rect
       style="fill:#aaffcc;fill-opacity:1;stroke:none"
       id="rect3030"
       width="20"
       height="20"
       x="552.36218"
       y="-100"
       transform="matrix(0,1,-1,0,0,0)" />
    <rect
       style="fill:#aaffcc;fill-opacity:1;stroke:none"
       id="rect3100"
       width="100"
       height="100"
       x="640"
       y="482.36218" />
    <g
       id="g3107"
       style="fill:#e9afaf"
       transform="matrix(0.74966196,0.38572549,-0.3574249,0.78970417,462.9584,167.10756)">
      <path
         sodipodi:nodetypes="sssss"
         inkscape:connector-curvature="0"
         id="path3102"
         d="m 160.00001,483.57142 c 0,57.9899 78.99795,65.51717 -5.71429,107.85714 -23.77081,11.88087 -47.14286,-47.0101 -47.14286,-105 0,-57.9899 21.10658,-105 47.14286,-105 26.03628,0 5.71429,44.15296 5.71429,102.14286 z"
         style="fill:#e9afaf;fill-opacity:1;stroke:none"
         transform="translate(0,452.36218)" />
      <path
         transform="translate(41.428571,475.21932)"
         d="m 157.14286,350.71429 a 40.714287,45 0 1 1 -81.428573,0 40.714287,45 0 1 1 81.428573,0 z"
         sodipodi:ry="45"
         sodipodi:rx="40.714287"
         sodipodi:cy="350.71429"
         sodipodi:cx="116.42857"
         id="path3105"
         style="fill:#e9afaf;fill-opacity:1;stroke:none"
         sodipodi:type="arc" />
    </g>
    <g
       transform="matrix(-0.72561433,0.44341169,0.40351047,0.79736684,291.07371,153.42105)"
       style="fill:#e9afaf"
       id="g3111">
      <path
         transform="translate(0,452.36218)"
         style="fill:#e9afaf;fill-opacity:1;stroke:none"
         d="m 160.00001,483.57142 c 0,57.9899 78.99795,65.51717 -5.71429,107.85714 -23.77081,11.88087 -47.14286,-47.0101 -47.14286,-105 0,-57.9899 21.10658,-105 47.14286,-105 26.03628,0 5.71429,44.15296 5.71429,102.14286 z"
         id="path3113"
         inkscape:connector-curvature="0"
         sodipodi:nodetypes="sssss" />
      <path
         sodipodi:type="arc"
         style="fill:#e9afaf;fill-opacity:1;stroke:none"
         id="path3115"
         sodipodi:cx="116.42857"
         sodipodi:cy="350.71429"
         sodipodi:rx="40.714287"
         sodipodi:ry="45"
         d="m 157.14286,350.71429 a 40.714287,45 0 1 1 -81.428573,0 40.714287,45 0 1 1 81.428573,0 z"
         transform="translate(41.428571,475.21932)" />
    </g>
    <rect
       style="fill:#afdde9;fill-opacity:1;stroke:none"
       id="rect3117"
       width="50"
       height="80"
       x="15.474752"
       y="803.00354"
       transform="matrix(0.99422425,-0.10732256,0.10732256,0.99422425,0,0)" />
    <path
       style="fill:#afdde9;fill-opacity:1;stroke:none"
       d="m 593.07514,784.60247 144.08458,7.61577 -32.15097,66.96776 -79.81308,-5.64918 z"
       id="rect3119"
       inkscape:connector-curvature="0"
       sodipodi:nodetypes="ccccc" />
    <rect
       y="902.36218"
       x="150"
       height="130"
       width="500"
       id="rect3122"
       style="fill:#aaffcc;fill-opacity:1;stroke:none;display:inline" />
  </g>
  <g
     inkscape:groupmode="layer"
     id="layer3"
     inkscape:label="Static"
     style="display:inline">
    <g
       style="display:inline"
       id="g3285"
       transform="translate(0.27621359,-0.27621359)">
      <rect
         y="-49.124023"
         x="-79.195961"
         height="688.72198"
         width="934.79517"
         id="rect3265"
         style="fill:#f4eed7;fill-opacity:1;stroke:none;display:inline" />
      <rect
         y="486.86292"
         x="-137.17871"
         height="185.26198"
         width="1045.1039"
         id="rect3268"
         style="fill:#aca793;fill-opacity:1;stroke:none" />
    </g>
    <g
       style="display:inline"
       id="g3274">
      <rect
         transform="matrix(0,1,-1,0,0,0)"
         style="fill:#918a6f;fill-opacity:1;stroke:#000000;stroke-width:2;stroke-opacity:1"
         id="rect3270"
         width="242.38152"
         height="32.112698"
         x="459.07855"
         y="-109.39445" />
      <rect
         y="-720.33472"
         x="471.80649"
         height="32.112698"
         width="273.21021"
         id="rect3272"
         style="fill:#918a6f;fill-opacity:1;stroke:#000000;stroke-width:2;stroke-opacity:1"
         transform="matrix(0,1,-1,0,0,0)" />
      <path
         sodipodi:nodetypes="ccccc"
         inkscape:connector-curvature="0"
         id="rect3229"
         d="m 66.468037,346.27006 663.266153,-1.28956 110.30866,175.23297 -872.569763,0 z"
         style="fill:#decd87;fill-opacity:1;stroke:#000000;stroke-width:2" />
      <rect
         y="516.56134"
         x="-31.112698"
         height="32.112698"
         width="868.32715"
         id="rect3234"
         style="fill:#decd87;fill-opacity:1;stroke:#000000;stroke-width:2;stroke-opacity:1" />
    </g>
    <g
       id="g3242"
       transform="translate(9.8994944,1.4142136)">
      <path
         sodipodi:nodetypes="cccccssscccccsssc"
         inkscape:connector-curvature="0"
         id="rect3209"
         d="m 430.26032,329.81582 -0.24306,0.43693 -0.24308,0.43694 -0.24308,0.43694 -0.24307,0.43694 c 0,0 33.90692,6.56129 44.20566,12.2906 10.29873,5.72929 4.64031,18.02985 14.93904,23.75915 10.29874,5.72929 29.15279,-2.37728 39.45152,3.35202 10.29873,5.72931 24.98863,29.34985 24.98863,29.34985 l 0.24307,-0.43693 0.24307,-0.43694 0.24309,-0.43694 0.24307,-0.43694 c 0,0 -14.6899,-23.62056 -24.98863,-29.34986 -10.29875,-5.72929 -29.15279,2.37729 -39.45152,-3.35202 -10.29873,-5.7293 -4.64032,-18.02985 -14.93904,-23.75915 -10.29874,-5.7293 -44.20567,-12.29059 -44.20567,-12.29059 z"
         style="fill:#000000;fill-opacity:1;stroke:none" />
      <g
         transform="translate(-12,-8)"
         id="g3212">
        <path
           style="fill:#e6e6e6;fill-opacity:1;stroke:#000000;stroke-width:2;stroke-opacity:1"
           d="m 612.09866,425.29921 c 2.50556,18.3995 -19.32375,40.30595 -40.48127,25.65549 -13.16368,-9.11514 -24.40954,-22.87363 -23.78884,-36.72334 0.62022,-13.83909 7.93316,-26.35525 21.6953,-27.90341 15.91115,-1.78992 39.81783,18.72556 42.57481,38.97126 z"
           id="path3196"
           inkscape:connector-curvature="0"
           sodipodi:nodetypes="sssss" />
        <path
           sodipodi:nodetypes="cscsc"
           inkscape:connector-curvature="0"
           id="path3199"
           d="m 569.61628,448.30885 c -12.52924,-11.97675 -18.88418,-17.53202 -20.99153,-29.43417 -1.85819,-10.49494 4.25025,-19.38905 6.87526,-22.50118 -1.85801,9.3498 -2.39266,17.71143 0.20523,24.54589 3.08139,8.10645 9.58404,18.97237 13.91104,27.38946 z"
           style="fill:#cccccc;fill-opacity:1;stroke:none" />
        <path
           style="fill:#999999;fill-opacity:1;stroke:#000000;stroke-width:1"
           d="m 560.90307,395.64147 3.15383,-3.01621 c 0.40037,-0.38291 0.88697,-0.13968 1.41386,0.0315 4.41489,1.43453 7.13909,5.54621 9.614,10.05266 0.26669,0.48559 0.36885,1.03095 -0.0315,1.41386 l -3.15383,3.01621 c -0.40037,0.38291 -1.17772,0.46963 -1.41386,-0.0315 -1.65333,-3.50905 -3.75844,-6.65883 -9.61401,-10.05267 -0.47931,-0.2778 -0.36884,-1.03096 0.0315,-1.41385 z"
           id="rect3203"
           inkscape:connector-curvature="0"
           sodipodi:nodetypes="sssssssss" />
        <path
           style="fill:#000000;fill-opacity:1;stroke:none"
           d="m 547.62301,417.28602 c 17.57976,0.57826 31.64996,-9.03689 42.77593,-21.95869 l 0.76179,-0.0159 c -10.96432,13.4574 -25.30114,22.68526 -43.02593,22.83369 z"
           id="rect3206"
           inkscape:connector-curvature="0"
           sodipodi:nodetypes="ccccc" />
      </g>
    </g>
    <g
       style="display:inline"
       id="g3163"
       transform="translate(2,2)">
      <g
         transform="translate(2,-1)"
         id="g3152">
        <path
           style="fill:#e6e6e6;fill-opacity:1;stroke:#000000;stroke-width:2"
           d="m 356.15075,354.20099 79.25484,0 c -4.94922,16.36702 -2.58974,30.64585 5.65685,43.24264 l -91.98276,1e-5 c 9.15076,-13.28193 9.12422,-28.0934 7.07107,-43.24265 z"
           id="rect3141"
           inkscape:connector-curvature="0"
           sodipodi:nodetypes="ccccc" />
        <path
           sodipodi:nodetypes="cccc"
           inkscape:connector-curvature="0"
           id="path3150"
           d="m 358.97918,354.20099 c 20.37453,21.62991 56.47127,14.75842 68.64823,30.51472 l -73.7193,4.60661 c 9.15076,-13.28193 7.12422,-19.97208 5.07107,-35.12133 z"
           style="fill:#cccccc;fill-opacity:1;stroke:none" />
      </g>
      <g
         transform="matrix(0.87053856,0,0,0.96379606,52.358194,6.7707361)"
         id="g3145">
        <path
           style="fill:#e6e6e6;fill-opacity:1;stroke:#000000;stroke-width:2"
           d="m 231.09136,131.20056 c 110.37159,-7.32787 219.12413,-6.45446 326.77487,0 5.78232,75.8663 7.77109,151.73261 0,227.5989 -108.92496,7.04534 -217.84991,6.7472 -326.77487,0 -4.33255,-77.32938 -3.83041,-153.02612 0,-227.5989 z"
           id="rect3130"
           inkscape:connector-curvature="0"
           sodipodi:nodetypes="ccccc" />
        <path
           sodipodi:nodetypes="ccccc"
           inkscape:connector-curvature="0"
           id="path3135"
           d="m 232.25268,132.63485 c 44.13844,-2.98557 79.62942,-4.12972 127.17978,-5 -56.1876,8.40996 -78.39228,10.31992 -119.5,13.22988 -5.03911,43.78467 -1.11985,49.74899 -9.67978,89.5 0.76738,-32.00606 0.46819,-67.34693 2,-97.72988 z"
           style="fill:#f9f9f9;fill-opacity:1;stroke:none" />
        <path
           style="fill:#cccccc;fill-opacity:1;stroke:none"
           d="m 557.83657,357.30081 c -38.96923,4.02313 -79.62942,4.12972 -127.17978,5 56.1876,-8.40996 74.52049,-10.87627 115.62821,-13.78623 5.03911,-43.78467 6.49164,-47.69264 15.05157,-87.44365 2.10441,33.56241 -1.96819,65.84693 -3.5,96.22988 z"
           id="path3139"
           inkscape:connector-curvature="0"
           sodipodi:nodetypes="ccccc" />
      </g>
      <rect
         y="155.05629"
         x="276.76489"
         height="178.30016"
         width="238.30016"
         id="rect3133"
         style="fill:#00ff00;fill-opacity:1;stroke:#000000;stroke-width:2;stroke-opacity:1" />
    </g>
    <g
       style="display:inline"
       id="g3189"
       transform="matrix(0.96463764,-0.02249136,0.02359659,0.91945502,4.9180658,24.372547)">
      <path
         sodipodi:nodetypes="ccccc"
         inkscape:connector-curvature="0"
         id="rect3182"
         d="M 245.08989,387.56614 511.62593,399.1163 531.92975,461.68447 211.93905,446.088 z"
         style="fill:#e6e6e6;fill-opacity:1;stroke:#000000;stroke-width:1.92312241" />
      <rect
         transform="matrix(0.9988189,0.04858815,-0.04155049,0.99913641,0,0)"
         y="435.3045"
         x="230.25482"
         height="19.089077"
         width="320.41238"
         id="rect3187"
         style="fill:#e6e6e6;fill-opacity:1;stroke:#000000;stroke-width:1.92314625" />
    </g>
    <g
       id="g4079"
       transform="matrix(0.99885681,-0.04780226,0.04780226,0.99885681,-3.7604084,-8.0306042)">
      <path
         sodipodi:nodetypes="ccccc"
         inkscape:connector-curvature="0"
         id="rect3292"
         d="m 82.654156,361.25755 c 17.483624,23.72786 36.570294,16.60143 55.938784,0.62424 l -1.41422,74.42298 C 124.4992,454.3464 94.757925,455.37498 82.731495,433.12279 z"
         style="fill:#c83737;fill-opacity:1;stroke:#000000;stroke-width:2" />
      <path
         transform="matrix(1.1236049,0,0,1.3651239,-3.8699527,6.890067)"
         d="m 126.57212,258.46744 a 24.748737,12.020815 0 1 1 -49.497478,0 24.748737,12.020815 0 1 1 49.497478,0 z"
         sodipodi:ry="12.020815"
         sodipodi:rx="24.748737"
         sodipodi:cy="258.46744"
         sodipodi:cx="101.82338"
         id="path4063"
         style="fill:#cccccc;fill-opacity:1;stroke:#000000;stroke-width:2;stroke-opacity:1"
         sodipodi:type="arc" />
      <rect
         transform="matrix(0.77797621,-0.62829374,0.62829374,0.77797621,0,0)"
         y="325.07205"
         x="-148.70306"
         height="13.727917"
         width="8.485281"
         id="rect4065"
         style="fill:#cccccc;fill-opacity:1;stroke:#000000;stroke-width:2;stroke-opacity:1" />
      <path
         sodipodi:nodetypes="ccccc"
         inkscape:connector-curvature="0"
         id="rect4067"
         d="m 89.443482,371.9139 5.397213,3.04939 -1.149048,69.0313 -4.828213,-4.17082 z"
         style="fill:#f4d7d7;fill-opacity:1;stroke:none" />
      <path
         style="fill:#a02c2c;fill-opacity:1;stroke:none"
         d="m 137.21186,366.66584 -6.50207,5.94963 -0.50823,69.30752 6.07118,-5.41378 z"
         id="path4072"
         inkscape:connector-curvature="0"
         sodipodi:nodetypes="ccccc" />
      <path
         sodipodi:nodetypes="ccc"
         inkscape:connector-curvature="0"
         id="path4074"
         d="m 136.88311,360.95794 c -3.83138,17.56789 -45.581204,18.1108 -51.7035,2.42534 10.094295,10.54888 36.66169,6.24921 51.7035,-2.42534 z"
         style="fill:#e6e6e6;fill-opacity:1;stroke:none" />
    </g>
    <rect
       style="fill:#d7eef4;fill-opacity:1;stroke:#000000;stroke-width:2;stroke-opacity:1"
       id="rect4087"
       width="242.88097"
       height="174.29732"
       x="-74.534805"
       y="56.042065" />
    <g
       id="g4105"
       style="fill:#918a6f">
      <rect
         style="fill:#918a6f;fill-opacity:1;stroke:#000000;stroke-width:2;stroke-opacity:1"
         id="rect4103"
         width="177.51822"
         height="6.9131508"
         x="54.851326"
         y="-45.177376"
         transform="matrix(0,1,-1,0,0,0)" />
      <rect
         y="54.619473"
         x="-76.543457"
         height="6.4921341"
         width="247.39204"
         id="rect4089"
         style="fill:#918a6f;fill-opacity:1;stroke:#000000;stroke-width:2;stroke-opacity:1" />
      <rect
         style="fill:#918a6f;fill-opacity:1;stroke:#000000;stroke-width:2;stroke-opacity:1"
         id="rect4091"
         width="247.39204"
         height="6.4921341"
         x="-77.037254"
         y="225.73358" />
      <rect
         y="136.23488"
         x="-78.024857"
         height="6.4921341"
         width="247.39204"
         id="rect4101"
         style="fill:#918a6f;fill-opacity:1;stroke:#000000;stroke-width:2;stroke-opacity:1" />
      <rect
         transform="matrix(0,1,-1,0,0,0)"
         y="-170.54305"
         x="54.298901"
         height="6.9131508"
         width="177.51822"
         id="rect4093"
         style="fill:#918a6f;fill-opacity:1;stroke:#000000;stroke-width:2;stroke-opacity:1" />
    </g>
  </g>
  <g
     inkscape:groupmode="layer"
     id="layer6"
     inkscape:label="Frame"
     style="display:inline">
    <g
       id="g3259">
      <rect
         y="-200"
         x="-200"
         height="1000"
         width="200"
         id="rect3251"
         style="fill:#000000;fill-opacity:1;stroke:none" />
      <rect
         style="fill:#000000;fill-opacity:1;stroke:none"
         id="rect3253"
         width="200"
         height="1000"
         x="800"
         y="-200" />
      <rect
         transform="matrix(0,1,-1,0,0,0)"
         style="fill:#000000;fill-opacity:1;stroke:none"
         id="rect3255"
         width="200"
         height="1000"
         x="600"
         y="-900" />
      <rect
         y="-900"
         x="-200"
         height="1000"
         width="200"
         id="rect3257"
         style="fill:#000000;fill-opacity:1;stroke:none"
         transform="matrix(0,1,-1,0,0,0)" />
    </g>
  </g>
</svg>
